<svg width="95" height="46" viewBox="0 0 95 46" fill="none" xmlns="http://www.w3.org/2000/svg">
<g clip-path="url(#clip0_3848_55804)">
<path d="M57.966 8.93419C57.4178 9.47405 56.9621 10.0445 56.3862 10.458C55.7855 10.8888 55.6143 11.3263 55.6543 12.0563C55.9927 18.1264 49.4304 22.4213 43.6664 19.9414C40.2927 18.4894 38.1716 15.088 38.637 11.4127C38.6674 11.1774 38.5997 11.0444 38.4091 10.8928C37.8581 10.45 37.3334 9.978 36.8059 9.50995C36.625 9.35039 36.4675 9.16689 36.288 8.98206C35.012 12.3169 35.5672 17.4988 39.8798 20.9227C43.9591 24.1619 49.8268 24.2736 54.0455 21.1767C58.5529 17.8684 59.3166 12.6042 57.966 8.93286V8.93419Z" fill="#25A96D"/>
<path d="M57.5172 -7.72141e-05C57.2148 -0.0067257 57.1085 0.0650779 57.1016 0.376227C57.0684 1.92 56.6279 3.36272 55.8504 4.70971C55.7911 4.81209 55.722 4.91049 55.6474 5.02883C53.315 2.65267 50.491 1.3868 47.1174 1.38946C43.7506 1.39211 40.9321 2.66729 38.6121 5.03149C37.622 3.4691 37.1635 1.80698 37.1332 0.0291761H34.2939C34.1503 3.21779 35.8268 7.95815 40.5648 10.6787C45.1136 13.2916 50.8818 12.9578 55.0426 9.78516C58.2906 7.3066 59.9132 4.03422 60.0167 0.00657127C59.1329 0.00657127 58.3251 0.0185385 57.5172 -7.72141e-05ZM40.5344 7.20156C43.741 3.23507 50.3184 3.07551 53.7417 7.20422C49.9124 10.563 43.9812 10.3237 40.5344 7.20156Z" fill="#25A96D"/>
</g>
<path d="M5.80135 42.6205C4.58208 42.6205 3.54636 42.4202 2.69418 42.0197C1.85512 41.6066 1.21271 41.0246 0.766958 40.2735C0.321204 39.51 0.0721071 38.5962 0.0196655 37.5323C0.00655518 37.0191 0 36.4683 0 35.88C0 35.2917 0.00655518 34.7285 0.0196655 34.1902C0.0721071 33.1388 0.321204 32.2313 0.766958 31.4678C1.22582 30.7042 1.87479 30.1222 2.71385 29.7216C3.56603 29.3086 4.59519 29.102 5.80135 29.102C6.69285 29.102 7.49259 29.2147 8.20055 29.44C8.90851 29.6653 9.51159 29.9782 10.0098 30.3788C10.508 30.7668 10.8947 31.2237 11.17 31.7494C11.4454 32.2751 11.5896 32.8446 11.6027 33.458C11.6158 33.5706 11.5765 33.6645 11.4847 33.7396C11.406 33.8147 11.3077 33.8523 11.1897 33.8523H9.32148C9.17727 33.8523 9.05928 33.821 8.9675 33.7584C8.87573 33.6833 8.81018 33.5644 8.77085 33.4017C8.56108 32.5755 8.20055 32.0123 7.68924 31.7119C7.17794 31.4114 6.54208 31.2612 5.78168 31.2612C4.90328 31.2612 4.20188 31.4991 3.67746 31.9747C3.15305 32.4378 2.87117 33.2076 2.83184 34.2841C2.79251 35.3105 2.79251 36.3619 2.83184 37.4384C2.87117 38.5149 3.15305 39.2909 3.67746 39.7666C4.20188 40.2297 4.90328 40.4613 5.78168 40.4613C6.54208 40.4613 7.17794 40.3111 7.68924 40.0107C8.20055 39.6977 8.56108 39.1345 8.77085 38.3209C8.81018 38.1456 8.87573 38.0267 8.9675 37.9641C9.05928 37.9015 9.17727 37.8703 9.32148 37.8703H11.1897C11.3077 37.8703 11.406 37.9078 11.4847 37.9829C11.5765 38.058 11.6158 38.1519 11.6027 38.2645C11.5896 38.8779 11.4454 39.4474 11.17 39.9731C10.8947 40.4988 10.508 40.962 10.0098 41.3625C9.51159 41.7505 8.90851 42.0572 8.20055 42.2825C7.49259 42.5078 6.69285 42.6205 5.80135 42.6205Z" fill="#25A96D"/>
<path d="M16.9962 42.6205C16.3144 42.6205 15.6983 42.4953 15.1476 42.245C14.597 41.9821 14.1578 41.6379 13.83 41.2123C13.5154 40.7742 13.358 40.286 13.358 39.7478C13.358 38.8716 13.7251 38.1769 14.4593 37.6637C15.2066 37.138 16.1899 36.7875 17.4092 36.6123L20.1033 36.2368V35.8425C20.1033 35.3168 19.9657 34.91 19.6904 34.6221C19.415 34.3342 18.9431 34.1902 18.2744 34.1902C17.8025 34.1902 17.4157 34.2841 17.1142 34.4719C16.8257 34.6471 16.6094 34.8849 16.4652 35.1853C16.3603 35.3481 16.2096 35.4294 16.0129 35.4294H14.4593C14.3151 35.4294 14.2037 35.3919 14.125 35.3168C14.0595 35.2417 14.0267 35.1415 14.0267 35.0164C14.0398 34.8161 14.125 34.572 14.2823 34.2841C14.4397 33.9962 14.6888 33.7208 15.0296 33.458C15.3705 33.1826 15.8097 32.951 16.3472 32.7633C16.8847 32.5755 17.5337 32.4817 18.2941 32.4817C19.1201 32.4817 19.8149 32.5818 20.3787 32.7821C20.9555 32.9698 21.4144 33.2264 21.7553 33.5519C22.0961 33.8773 22.3452 34.2591 22.5025 34.6972C22.6599 35.1353 22.7385 35.5984 22.7385 36.0866V41.9821C22.7385 42.1073 22.6926 42.2137 22.6009 42.3013C22.5091 42.3889 22.3977 42.4327 22.2666 42.4327H20.6736C20.5294 42.4327 20.4114 42.3889 20.3197 42.3013C20.241 42.2137 20.2017 42.1073 20.2017 41.9821V41.2499C20.0312 41.4877 19.8018 41.713 19.5134 41.9258C19.2249 42.1261 18.871 42.295 18.4514 42.4327C18.045 42.5579 17.5599 42.6205 16.9962 42.6205ZM17.6648 40.8368C18.1237 40.8368 18.5367 40.7429 18.9037 40.5552C19.2839 40.3674 19.5789 40.0795 19.7887 39.6915C20.0116 39.2909 20.123 38.7903 20.123 38.1894V37.7951L18.1565 38.0956C17.3829 38.2082 16.8061 38.3897 16.4259 38.6401C16.0457 38.8904 15.8556 39.1971 15.8556 39.5601C15.8556 39.8354 15.9408 40.0733 16.1112 40.2735C16.2948 40.4613 16.5242 40.6052 16.7995 40.7054C17.0748 40.793 17.3633 40.8368 17.6648 40.8368Z" fill="#25A96D"/>
<path d="M30.1146 42.4327C29.3279 42.4327 28.6659 42.3013 28.1283 42.0384C27.5908 41.7756 27.1909 41.3875 26.9287 40.8743C26.6665 40.3486 26.5354 39.6977 26.5354 38.9217V34.6596H24.9818C24.8507 34.6596 24.7393 34.6158 24.6475 34.5282C24.5558 34.4406 24.5099 34.3342 24.5099 34.209V33.12C24.5099 32.9949 24.5558 32.8885 24.6475 32.8008C24.7393 32.7132 24.8507 32.6694 24.9818 32.6694H26.5354V29.5527C26.5354 29.4275 26.5748 29.3211 26.6534 29.2335C26.7452 29.1459 26.8632 29.102 27.0074 29.102H28.6003C28.7314 29.102 28.8428 29.1459 28.9346 29.2335C29.0264 29.3211 29.0723 29.4275 29.0723 29.5527V32.6694H31.5305C31.6616 32.6694 31.773 32.7132 31.8648 32.8008C31.9566 32.8885 32.0025 32.9949 32.0025 33.12V34.209C32.0025 34.3342 31.9566 34.4406 31.8648 34.5282C31.773 34.6158 31.6616 34.6596 31.5305 34.6596H29.0723V38.7339C29.0723 39.2471 29.1641 39.6477 29.3476 39.9356C29.5443 40.2235 29.8786 40.3674 30.3505 40.3674H31.7075C31.8386 40.3674 31.95 40.4112 32.0418 40.4988C32.1336 40.5865 32.1794 40.6929 32.1794 40.818V41.9821C32.1794 42.1073 32.1336 42.2137 32.0418 42.3013C31.95 42.3889 31.8386 42.4327 31.7075 42.4327H30.1146Z" fill="#25A96D"/>
<path d="M38.8732 42.4327C38.0865 42.4327 37.4245 42.3013 36.8869 42.0384C36.3494 41.7756 35.9496 41.3875 35.6873 40.8743C35.4251 40.3486 35.294 39.6977 35.294 38.9217V34.6596H33.7404C33.6093 34.6596 33.4979 34.6158 33.4061 34.5282C33.3144 34.4406 33.2685 34.3342 33.2685 34.209V33.12C33.2685 32.9949 33.3144 32.8885 33.4061 32.8008C33.4979 32.7132 33.6093 32.6694 33.7404 32.6694H35.294V29.5527C35.294 29.4275 35.3334 29.3211 35.412 29.2335C35.5038 29.1459 35.6218 29.102 35.766 29.102H37.3589C37.49 29.102 37.6015 29.1459 37.6932 29.2335C37.785 29.3211 37.8309 29.4275 37.8309 29.5527V32.6694H40.2891C40.4202 32.6694 40.5316 32.7132 40.6234 32.8008C40.7152 32.8885 40.7611 32.9949 40.7611 33.12V34.209C40.7611 34.3342 40.7152 34.4406 40.6234 34.5282C40.5316 34.6158 40.4202 34.6596 40.2891 34.6596H37.8309V38.7339C37.8309 39.2471 37.9227 39.6477 38.1062 39.9356C38.3029 40.2235 38.6372 40.3674 39.1092 40.3674H40.4661C40.5972 40.3674 40.7086 40.4112 40.8004 40.4988C40.8922 40.5865 40.938 40.6929 40.938 40.818V41.9821C40.938 42.1073 40.8922 42.2137 40.8004 42.3013C40.7086 42.3889 40.5972 42.4327 40.4661 42.4327H38.8732Z" fill="#25A96D"/>
<path d="M43.502 42.4327C43.3709 42.4327 43.2595 42.3889 43.1677 42.3013C43.0759 42.2137 43.03 42.1073 43.03 41.9821V29.5527C43.03 29.4275 43.0759 29.3211 43.1677 29.2335C43.2595 29.1459 43.3709 29.102 43.502 29.102H45.1342C45.2654 29.102 45.3768 29.1459 45.4686 29.2335C45.5603 29.3211 45.6062 29.4275 45.6062 29.5527V41.9821C45.6062 42.1073 45.5603 42.2137 45.4686 42.3013C45.3768 42.3889 45.2654 42.4327 45.1342 42.4327H43.502Z" fill="#25A96D"/>
<path d="M50.3912 46.0001C50.2863 46.0001 50.1945 45.9625 50.1158 45.8874C50.0372 45.8123 49.9978 45.7247 49.9978 45.6246C49.9978 45.5745 49.9978 45.5244 49.9978 45.4744C50.011 45.4368 50.0372 45.3868 50.0765 45.3242L51.6104 41.8507L47.8346 33.3453C47.7822 33.2202 47.756 33.1325 47.756 33.0825C47.7691 32.9698 47.815 32.8759 47.8936 32.8008C47.9723 32.7132 48.0706 32.6694 48.1886 32.6694H49.7815C49.9388 32.6694 50.0568 32.707 50.1355 32.7821C50.2142 32.8572 50.2732 32.9385 50.3125 33.0261L52.928 39.1658L55.6222 33.0261C55.6615 32.926 55.7205 32.8446 55.7992 32.7821C55.8778 32.707 55.9958 32.6694 56.1532 32.6694H57.7264C57.8313 32.6694 57.9231 32.707 58.0017 32.7821C58.0935 32.8572 58.1394 32.9448 58.1394 33.0449C58.1394 33.12 58.1132 33.2202 58.0607 33.3453L52.4954 45.6434C52.4429 45.7435 52.3774 45.8249 52.2987 45.8874C52.2201 45.9625 52.1021 46.0001 51.9447 46.0001H50.3912Z" fill="#25A96D"/>
<path d="M64.7841 42.4327C63.9975 42.4327 63.3354 42.3013 62.7979 42.0384C62.2604 41.7756 61.8605 41.3875 61.5983 40.8743C61.3361 40.3486 61.205 39.6977 61.205 38.9217V34.6596H59.6514C59.5203 34.6596 59.4088 34.6158 59.3171 34.5282C59.2253 34.4406 59.1794 34.3342 59.1794 34.209V33.12C59.1794 32.9949 59.2253 32.8885 59.3171 32.8008C59.4088 32.7132 59.5203 32.6694 59.6514 32.6694H61.205V29.5527C61.205 29.4275 61.2443 29.3211 61.323 29.2335C61.4147 29.1459 61.5327 29.102 61.6769 29.102H63.2699C63.401 29.102 63.5124 29.1459 63.6042 29.2335C63.6959 29.3211 63.7418 29.4275 63.7418 29.5527V32.6694H66.2C66.3311 32.6694 66.4426 32.7132 66.5343 32.8008C66.6261 32.8885 66.672 32.9949 66.672 33.12V34.209C66.672 34.3342 66.6261 34.4406 66.5343 34.5282C66.4426 34.6158 66.3311 34.6596 66.2 34.6596H63.7418V38.7339C63.7418 39.2471 63.8336 39.6477 64.0171 39.9356C64.2138 40.2235 64.5481 40.3674 65.0201 40.3674H66.377C66.5081 40.3674 66.6196 40.4112 66.7113 40.4988C66.8031 40.5865 66.849 40.6929 66.849 40.818V41.9821C66.849 42.1073 66.8031 42.2137 66.7113 42.3013C66.6196 42.3889 66.5081 42.4327 66.377 42.4327H64.7841Z" fill="#25A96D"/>
<path d="M69.3933 42.4327C69.2622 42.4327 69.1507 42.3889 69.059 42.3013C68.9672 42.2137 68.9213 42.1073 68.9213 41.9821V33.12C68.9213 32.9949 68.9672 32.8885 69.059 32.8008C69.1507 32.7132 69.2622 32.6694 69.3933 32.6694H71.0255C71.1697 32.6694 71.2812 32.7132 71.3598 32.8008C71.4516 32.8885 71.4975 32.9949 71.4975 33.12V41.9821C71.4975 42.1073 71.4516 42.2137 71.3598 42.3013C71.2812 42.3889 71.1697 42.4327 71.0255 42.4327H69.3933ZM69.3146 31.0547C69.1704 31.0547 69.0524 31.0172 68.9606 30.9421C68.882 30.8544 68.8426 30.7418 68.8426 30.6041V29.2522C68.8426 29.1271 68.882 29.0207 68.9606 28.9331C69.0524 28.8454 69.1704 28.8016 69.3146 28.8016H71.1042C71.2484 28.8016 71.3664 28.8454 71.4582 28.9331C71.5499 29.0207 71.5958 29.1271 71.5958 29.2522V30.6041C71.5958 30.7418 71.5499 30.8544 71.4582 30.9421C71.3664 31.0172 71.2484 31.0547 71.1042 31.0547H69.3146Z" fill="#25A96D"/>
<path d="M78.9167 42.6205C77.9727 42.6205 77.1402 42.4515 76.4192 42.1135C75.7112 41.7756 75.154 41.2874 74.7476 40.649C74.3543 39.9982 74.138 39.2158 74.0986 38.3021C74.0855 38.1143 74.079 37.8703 74.079 37.5698C74.079 37.2569 74.0855 37.0003 74.0986 36.8C74.138 35.8863 74.3543 35.1102 74.7476 34.4719C75.154 33.821 75.7112 33.3266 76.4192 32.9886C77.1402 32.6506 77.9727 32.4817 78.9167 32.4817C79.7558 32.4817 80.4703 32.5943 81.0602 32.8196C81.6502 33.0449 82.1353 33.3266 82.5155 33.6645C82.8957 34.0025 83.1776 34.3592 83.3611 34.7347C83.5578 35.0977 83.6627 35.4294 83.6758 35.7298C83.6889 35.8675 83.643 35.9802 83.5381 36.0678C83.4463 36.1429 83.3349 36.1804 83.2038 36.1804H81.4732C81.3421 36.1804 81.2372 36.1492 81.1586 36.0866C81.093 36.024 81.0275 35.9301 80.9619 35.8049C80.7653 35.3043 80.5031 34.9538 80.1753 34.7535C79.8606 34.5407 79.4542 34.4343 78.956 34.4343C78.3005 34.4343 77.7761 34.6346 77.3828 35.0351C77.0026 35.4232 76.7994 36.0428 76.7731 36.8939C76.7469 37.3696 76.7469 37.8077 76.7731 38.2082C76.7994 39.0719 77.0026 39.6977 77.3828 40.0858C77.7761 40.4738 78.3005 40.6678 78.956 40.6678C79.4673 40.6678 79.8803 40.5677 80.195 40.3674C80.5096 40.1546 80.7653 39.7979 80.9619 39.2972C81.0275 39.172 81.093 39.0781 81.1586 39.0156C81.2372 38.953 81.3421 38.9217 81.4732 38.9217H83.2038C83.3349 38.9217 83.4463 38.9655 83.5381 39.0531C83.643 39.1282 83.6889 39.2346 83.6758 39.3723C83.6627 39.5976 83.5971 39.8542 83.4791 40.1421C83.3742 40.4175 83.1972 40.7054 82.9481 41.0058C82.7122 41.2937 82.4106 41.5628 82.0435 41.8131C81.6764 42.051 81.2307 42.245 80.7063 42.3952C80.195 42.5454 79.5984 42.6205 78.9167 42.6205Z" fill="#25A96D"/>
<path d="M89.9285 42.6205C89.1419 42.6205 88.4667 42.5329 87.903 42.3576C87.3523 42.1824 86.9 41.9633 86.5461 41.7005C86.1921 41.4376 85.9299 41.1748 85.7594 40.9119C85.589 40.649 85.4972 40.43 85.4841 40.2548C85.471 40.1171 85.5103 40.0107 85.6021 39.9356C85.707 39.8479 85.8184 39.8041 85.9364 39.8041H87.49C87.5424 39.8041 87.5883 39.8104 87.6277 39.8229C87.667 39.8354 87.7194 39.873 87.785 39.9356C87.9554 40.0733 88.1324 40.2172 88.316 40.3674C88.5126 40.5176 88.7421 40.649 89.0043 40.7617C89.2665 40.8618 89.5942 40.9119 89.9875 40.9119C90.4988 40.9119 90.9249 40.818 91.2658 40.6303C91.6198 40.43 91.7968 40.1484 91.7968 39.7854C91.7968 39.5225 91.7181 39.3097 91.5608 39.147C91.4166 38.9843 91.1413 38.8403 90.7348 38.7152C90.3284 38.5775 89.7515 38.4335 89.0043 38.2833C88.2701 38.1206 87.6604 37.9141 87.1754 37.6637C86.6903 37.4134 86.3297 37.1005 86.0938 36.7249C85.8578 36.3494 85.7398 35.9113 85.7398 35.4106C85.7398 34.9225 85.8905 34.4594 86.1921 34.0213C86.5067 33.5706 86.9656 33.2014 87.5687 32.9135C88.1849 32.6256 88.9453 32.4817 89.8499 32.4817C90.5578 32.4817 91.174 32.5693 91.6984 32.7445C92.2229 32.9072 92.6555 33.1138 92.9964 33.3641C93.3503 33.6144 93.6191 33.871 93.8027 34.1339C93.9862 34.3842 94.0845 34.6033 94.0976 34.7911C94.1107 34.9287 94.0714 35.0414 93.9796 35.129C93.8879 35.2041 93.783 35.2417 93.665 35.2417H92.2097C92.1442 35.2417 92.0852 35.2291 92.0328 35.2041C91.9803 35.1791 91.9279 35.1478 91.8754 35.1102C91.7312 34.9851 91.5739 34.8536 91.4035 34.716C91.233 34.5783 91.0233 34.4594 90.7742 34.3592C90.5382 34.2466 90.2235 34.1902 89.8302 34.1902C89.332 34.1902 88.9518 34.2966 88.6896 34.5094C88.4274 34.7097 88.2963 34.9663 88.2963 35.2792C88.2963 35.492 88.3553 35.6798 88.4733 35.8425C88.6044 35.9927 88.86 36.1366 89.2402 36.2743C89.6204 36.412 90.1973 36.556 90.9708 36.7062C91.8492 36.8564 92.5441 37.0817 93.0554 37.3821C93.5798 37.67 93.9469 38.0079 94.1566 38.396C94.3795 38.7715 94.491 39.1908 94.491 39.6539C94.491 40.2172 94.314 40.7241 93.96 41.1748C93.6191 41.6254 93.1078 41.9821 92.4261 42.245C91.7574 42.4953 90.9249 42.6205 89.9285 42.6205Z" fill="#25A96D"/>
<defs>
<clipPath id="clip0_3848_55804">
<rect width="25.7311" height="23.4292" fill="white" transform="translate(34.2856)"/>
</clipPath>
</defs>
</svg>
